<svg height="512pt" viewBox="0 0 512 512" width="512pt" xmlns="http://www.w3.org/2000/svg"><path d="m135 316c0 24.851562-20.148438 45-45 45s-45-20.148438-45-45 20.148438-45 45-45 45 20.148438 45 45zm0 0"/><path d="m422 391c-16.835938 0-32.417969 4.933594-45.90625 13.011719l-105.09375-66.25v-96.761719h75v-30c0-49.628906-40.371094-91-90-91s-90 41.371094-90 91v30h75v96.769531l-105.09375 66.242188c-13.488281-8.078125-29.070312-13.011719-45.90625-13.011719-49.628906 0-90 40.371094-90 90v31h180v-31c0-21.480469-7.875-40.964844-20.480469-56.449219l96.476563-60.769531 96.480468 60.769531c-12.601562 15.488281-20.476562 34.96875-20.476562 56.449219v31h180v-31c0-49.628906-40.371094-90-90-90zm0 0"/><path d="m467 316c0 24.851562-20.148438 45-45 45s-45-20.148438-45-45 20.148438-45 45-45 45 20.148438 45 45zm0 0"/><path d="m301 45c0 24.851562-20.148438 45-45 45s-45-20.148438-45-45 20.148438-45 45-45 45 20.148438 45 45zm0 0"/></svg>