<svg id="Layer_1" enable-background="new 0 0 1700 1700" height="512" viewBox="0 0 1700 1700" width="512" xmlns="http://www.w3.org/2000/svg"><g fill="rgb(0,0,0)"><g><g><path d="m754 1481.6h-623.6c-13 0-25.3-5.1-34.4-14.4-9.2-9.3-14.1-21.6-14-34.6.7-60.1 5-172.1 26.1-247.3 6.5-23.3 14.5-42.3 25-59.9 8.9-14.9 34.5-52.3 80.5-78.2 42.5-23.9 83.2-27.5 109.8-26.2 4.7.2 9.2 1.8 13 4.6l103.1 75.2 109-75.5c3.7-2.6 8.1-4 12.6-4.3 26.7-1.2 67.3 2.3 109.8 26.2 45.9 25.8 71.6 63.3 80.5 78.2 10.5 17.6 18.5 36.7 25 59.9 21.1 75.2 25.4 187.2 26.1 247.3.2 13-4.8 25.3-14 34.6-9.3 9.3-21.5 14.4-34.5 14.4zm-312.7-48h312.7c.1 0 .2 0 .3-.1s.1-.2.1-.3c-.7-57.7-4.7-165-24.3-234.9-5.4-19.3-11.6-34.2-20-48.3-6.9-11.6-26.9-40.7-62.8-60.9-29-16.3-56.9-20.3-77-20.3-.1 0-.2 0-.3 0l-117.2 81.2c-8.4 5.8-19.6 5.7-27.8-.3l-110.8-80.8c-20.1 0-48 3.9-77.1 20.3-35.9 20.2-55.9 49.3-62.8 60.9-8.4 14.1-14.5 28.9-20 48.3-19.6 69.9-23.6 177.2-24.3 234.9 0 .1 0 .2.1.3s.2.1.3.1z"/><g><path d="m247.6 1481.6c-13.3 0-24-10.7-24-24v-188.8c0-13.3 10.7-24 24-24s24 10.7 24 24v188.8c0 13.2-10.7 24-24 24z"/><path d="m636.8 1481.6c-13.3 0-24-10.7-24-24v-188.8c0-13.3 10.7-24 24-24s24 10.7 24 24v188.8c0 13.2-10.8 24-24 24z"/></g><g><path d="m443.1 1032.3c-48.2 0-93.4-20.6-127.2-58.1-33.2-36.8-51.5-85.5-51.5-137.2v-72.4c0-10.2 6.5-19.3 16.2-22.7 8.4-3 33.4-13.9 46.8-28.8 8.5-9.5 22.7-10.8 32.6-2.8 1.3.9 19.4 14.1 50.6 20.8 43.1 9.2 89.7 2.2 138.4-20.8 9.4-4.4 20.5-2.3 27.7 5.2.2.2 18 18.8 33.9 28.7 7.1 4.4 11.4 12.1 11.4 20.4v72.4c0 51.7-18.3 100.5-51.5 137.2-34 37.5-79.2 58.1-127.4 58.1zm-130.7-251.7v56.4c0 81.2 58.7 147.3 130.8 147.3s130.7-66.1 130.7-147.3v-59.8c-7.4-5.5-14.3-11.6-19.8-16.7-67.3 27.8-121.8 24.8-156.7 16.8-21.4-4.9-38-12.1-49.4-18.2-12.3 9.7-25.6 16.8-35.6 21.5z"/><path d="m288.4 788.6c-9.3 0-18.1-5.4-22-14.5-8.7-20.1-10-41.3-11.2-60-1-15.3-2.1-34.3 2.3-53 3.9-16.5 13.6-34 29.4-53.3 2.5-3 5-6 7.7-8.8 42.5-45.4 112-63.2 125.6-66.3 26.5-6.1 51.9-8.3 75.5-6.4 16.6 1.3 30.6 3.6 43 7.1 17.6 4.9 31.5 14.5 40 27.7 4.2 6.6 6.8 13.1 9 18.8 1.8 4.6 3.4 8.9 5.2 11 2.9 3.4 6.9 6.5 11.5 10.2 5.4 4.3 11.6 9.1 17.3 15.5 13.5 15.2 28.7 40.7 31.1 66.6 2.2 24.2-7.2 45.1-15.7 60.5-.2.4-.7 1.3-1.4 2.7-14.4 27.8-17.5 32.1-21.5 35.8-9.8 8.9-25 8.3-33.9-1.5-8.3-9.1-8.3-22.8-.5-31.8 1.3-1.9 4.6-7.7 13.3-24.5 1-1.9 1.7-3.2 1.9-3.6 7.7-14.1 10.8-24.3 10-33.2-1-11.4-8.9-27.5-19.2-39.1-2.8-3.2-6.7-6.2-11-9.7-5.8-4.6-12.4-9.8-18.4-16.9-7-8.3-10.5-17.4-13.3-24.7-1.5-3.9-3-7.7-4.5-10.1-2.8-4.3-9.1-6.6-12.7-7.6-9.3-2.6-20.4-4.4-33.8-5.4-18.7-1.4-39.3.4-61 5.4-30.8 7.1-75.7 25-101.3 52.3-1.9 2.1-3.8 4.2-5.6 6.4-13.7 16.7-18.4 27.8-19.9 34.1-2.8 11.8-1.9 26.2-1.1 38.9 1 15.5 2 31.5 7.3 43.9 5.3 12.2-.3 26.3-12.5 31.5-3.2 1.3-6.5 2-9.6 2zm293.3-41.8c0 .1 0 .1 0 0z"/></g><g><path d="m350 1089.3c-3.4 0-6.9-.7-10.2-2.3-12-5.6-17.2-19.9-11.5-31.9 4.2-9 11.4-27.1 11.9-46.5.2-7.4-.7-10.5-2.4-16.6-.4-1.4-.8-2.9-1.2-4.4-3.4-12.8 4.3-25.9 17.2-29.3 12.8-3.3 25.9 4.3 29.3 17.2.3 1.3.7 2.6 1 3.8 2.1 7.6 4.5 16.1 4.1 30.7-.7 26.8-9.3 50.5-16.4 65.7-4.1 8.5-12.8 13.6-21.8 13.6z"/><path d="m532.7 1089.4c-8.7 0-17.1-4.8-21.4-13.1-11.8-23.1-18.4-47.2-19-69.8-.3-11.5 1.1-19.2 2.6-25.1 2.4-10.7 12-18.7 23.4-18.7 13.3 0 24 10.7 24 24 0 2-.3 4-.7 5.9-.8 3.1-1.5 6.3-1.3 12.7.5 19.5 7.7 37.5 13.7 49.2 6 11.8 1.4 26.3-10.4 32.3-3.5 1.7-7.2 2.6-10.9 2.6z"/></g></g><g><path d="m1569.6 1481.6h-623.6c-13 0-25.3-5.1-34.4-14.4-9.2-9.3-14.1-21.6-14-34.6.7-60.1 5-172.1 26.1-247.3 6.5-23.3 14.5-42.3 25-59.9 8.9-14.9 34.5-52.3 80.5-78.2 42.5-23.9 83.2-27.5 109.8-26.2 4.7.2 9.2 1.8 13 4.6l103.1 75.2 109-75.5c3.7-2.6 8.1-4 12.6-4.3 26.7-1.2 67.3 2.3 109.8 26.2 45.9 25.8 71.6 63.3 80.5 78.2 10.5 17.6 18.5 36.7 25 59.9 21.1 75.2 25.4 187.2 26.1 247.3.2 13-4.8 25.3-14 34.6-9.3 9.3-21.5 14.4-34.5 14.4zm-312.6-48h312.6c.1 0 .2 0 .3-.1s.1-.2.1-.3c-.7-57.7-4.7-165-24.3-234.9-5.4-19.3-11.6-34.2-20-48.3-6.9-11.6-26.9-40.7-62.8-60.9-29-16.3-56.9-20.3-77.1-20.3-.1 0-.2 0-.3 0l-117.2 81.2c-8.4 5.8-19.6 5.7-27.8-.3l-110.8-80.8c-20.1 0-48 3.9-77.1 20.3-35.9 20.2-55.9 49.3-62.8 60.9-8.4 14.1-14.6 28.9-20 48.3-19.6 69.9-23.6 177.2-24.3 234.9 0 .1 0 .2.1.3s.2.1.3.1z"/><g><path d="m1063.2 1481.6c-13.3 0-24-10.7-24-24v-188.8c0-13.3 10.7-24 24-24s24 10.7 24 24v188.8c0 13.2-10.7 24-24 24z"/><path d="m1452.4 1481.6c-13.3 0-24-10.7-24-24v-188.8c0-13.3 10.7-24 24-24s24 10.7 24 24v188.8c0 13.2-10.7 24-24 24z"/></g><g><path d="m1258.7 1032.3c-48.2 0-93.4-20.6-127.2-58.1-33.2-36.8-51.5-85.5-51.5-137.2v-72.4c0-10.2 6.5-19.3 16.2-22.7 8.4-3 33.4-13.9 46.8-28.8 8.6-9.5 22.7-10.8 32.6-2.8 1.3.9 19.4 14.1 50.6 20.8 43.1 9.2 89.7 2.2 138.4-20.8 9.4-4.4 20.5-2.3 27.7 5.2.2.2 17.9 18.8 33.9 28.7 7.1 4.4 11.4 12.1 11.4 20.4v72.4c0 51.7-18.3 100.5-51.5 137.2-34 37.5-79.2 58.1-127.4 58.1zm-130.7-251.7v56.4c0 81.2 58.7 147.3 130.8 147.3s130.8-66.1 130.8-147.3v-59.8c-7.4-5.5-14.3-11.6-19.8-16.7-67.3 27.8-121.8 24.8-156.7 16.8-21.4-4.9-38.1-12.1-49.4-18.2-12.4 9.7-25.7 16.8-35.7 21.5z"/><path d="m1104 788.6c-9.3 0-18.1-5.4-22-14.5-8.7-20.1-10-41.3-11.2-60-.9-15.3-2.1-34.3 2.3-53 3.9-16.5 13.6-34 29.4-53.3 2.5-3 5.1-6 7.7-8.8 42.4-45.4 112-63.2 125.6-66.3 26.5-6.1 51.9-8.3 75.5-6.4 16.6 1.3 30.6 3.6 43 7.1 17.6 4.9 31.5 14.5 40 27.7 4.2 6.5 6.8 13.1 9 18.8 1.8 4.6 3.4 8.9 5.2 11 2.9 3.4 6.9 6.5 11.5 10.2 5.4 4.3 11.6 9.1 17.3 15.5 13.5 15.2 28.7 40.7 31.1 66.6 2.2 24.2-7.2 45.1-15.7 60.5-.2.4-.7 1.3-1.4 2.7-14.4 27.8-17.5 32.1-21.5 35.8-9.8 8.9-25 8.3-33.9-1.5-8.3-9.1-8.3-22.8-.5-31.8 1.3-1.9 4.6-7.7 13.3-24.5 1-1.9 1.7-3.2 1.9-3.6 7.7-14.1 10.8-24.3 10-33.2-1-11.4-8.9-27.5-19.2-39.1-2.8-3.2-6.7-6.2-11.1-9.7-5.8-4.6-12.4-9.8-18.4-16.9-7-8.3-10.5-17.4-13.3-24.7-1.5-3.9-3-7.7-4.5-10.1-2.8-4.3-9.1-6.6-12.7-7.6-9.3-2.6-20.4-4.4-33.8-5.4-18.7-1.4-39.3.4-61 5.4-30.8 7.1-75.7 25-101.3 52.3-1.9 2.1-3.8 4.2-5.6 6.4-13.7 16.7-18.4 27.8-19.9 34.1-2.8 11.8-1.9 26.2-1.1 38.9 1 15.5 2 31.5 7.3 43.9 5.3 12.2-.3 26.3-12.5 31.5-3.1 1.3-6.3 2-9.5 2zm293.3-41.8c0 .1 0 .1 0 0z"/></g><g><path d="m1165.6 1089.3c-3.4 0-6.9-.7-10.2-2.3-12-5.6-17.2-19.9-11.6-31.9 4.2-9 11.4-27.1 11.9-46.5.2-7.4-.7-10.5-2.4-16.6-.4-1.4-.8-2.9-1.2-4.4-3.3-12.8 4.3-25.9 17.2-29.3 12.8-3.3 25.9 4.3 29.3 17.2.3 1.3.7 2.6 1 3.8 2.1 7.6 4.5 16.1 4.1 30.7-.7 26.8-9.3 50.5-16.4 65.7-4 8.5-12.6 13.6-21.7 13.6z"/><path d="m1348.3 1089.4c-8.7 0-17.1-4.8-21.4-13.1-11.8-23.1-18.4-47.2-19-69.8-.3-11.5 1.1-19.2 2.6-25.1 2.4-10.7 12-18.7 23.4-18.7 13.3 0 24 10.7 24 24 0 2-.3 4-.7 5.9-.8 3.1-1.5 6.3-1.3 12.7.5 19.5 7.7 37.5 13.7 49.2 6.1 11.8 1.4 26.3-10.4 32.3-3.4 1.7-7.2 2.6-10.9 2.6z"/></g></g></g><g><g><path d="m984.1 407.5c-10 0-19.3-6.3-22.7-16.2-4.3-12.5 2.3-26.2 14.9-30.5 19.6-6.7 32.7-25.2 32.7-45.9 0-26.8-21.8-48.5-48.5-48.5h-99c-26.8 0-48.5 21.8-48.5 48.5 0 18.6 10.4 35.3 27.2 43.6 11.9 5.8 16.8 20.2 10.9 32.1-5.8 11.9-20.2 16.8-32.1 11-15.9-7.8-29.4-19.9-39-34.9-9.8-15.5-15-33.3-15-51.7 0-53.2 43.3-96.5 96.5-96.5h99c53.2 0 96.5 43.3 96.5 96.5 0 41.2-26.2 77.9-65.1 91.3-2.6.8-5.2 1.2-7.8 1.2z"/><path d="m838.5 483.9h-99c-53.2 0-96.5-43.3-96.5-96.5 0-20 6-39.1 17.5-55.4 11.2-15.9 26.6-27.9 44.7-34.8 12.4-4.7 26.3 1.5 31 13.9s-1.5 26.3-13.9 31c-18.7 7.1-31.3 25.3-31.3 45.4 0 26.8 21.8 48.5 48.5 48.5h99c26.8 0 48.5-21.8 48.5-48.5 0-19.6-11.7-37.2-29.8-44.8-12.2-5.1-18-19.2-12.8-31.4 5.1-12.2 19.2-18 31.4-12.8 35.9 15.1 59.2 50 59.2 89 0 53.1-43.3 96.4-96.5 96.4z"/></g><g><path d="m442.2 445.9c-13.3 0-24-10.7-24-24v-121.5c0-13.3 10.7-24 24-24h121.4c13.3 0 24 10.7 24 24s-10.7 24-24 24h-97.4v97.4c0 13.3-10.7 24.1-24 24.1z"/><path d="m1257.8 445.9c-13.3 0-24-10.7-24-24v-97.4h-97.4c-13.3 0-24-10.7-24-24s10.7-24 24-24h121.4c13.3 0 24 10.7 24 24v121.4c0 13.2-10.7 24-24 24z"/></g></g></g></svg>