<svg id="Image" height="512" viewBox="0 0 64 64" width="512" xmlns="http://www.w3.org/2000/svg"><path d="m62 1h-46a1 1 0 0 0 -1 1v32.92a1 1 0 0 0 2 0v-31.92h44v58h-44a1 1 0 0 0 -2 0v1a1 1 0 0 0 1 1h46a1 1 0 0 0 1-1v-60a1 1 0 0 0 -1-1z"/><path d="m42 6h-6a3 3 0 0 0 -3 3v3h-4a3 3 0 0 0 -3 3v10a3 3 0 0 0 3 3h20a3 3 0 0 0 3-3v-10a3 3 0 0 0 -3-3h-4v-3a3 3 0 0 0 -3-3zm-8 8v12h-2v-12zm2 0h6v12h-6zm8 0h2v12h-2zm-9-5a1 1 0 0 1 1-1h6a1 1 0 0 1 1 1v3h-8zm-7 16v-10a1 1 0 0 1 1-1h1v12h-1a1 1 0 0 1 -1-1zm22-10v10a1 1 0 0 1 -1 1h-1v-12h1a1 1 0 0 1 1 1z"/><path d="m13.707 30.707a1 1 0 0 0 -1.414-1.414l-3.243 3.243a6.954 6.954 0 0 0 -2.05 4.949c-.264 9.427.678 11.28-1 13.515l-4.8 6.4a1 1 0 0 0 1.6 1.2l4.8-6.4c2.276-3.033 1.069-5.716 1.4-14.715a4.967 4.967 0 0 1 1.464-3.535z"/><path d="m24 41.261 3.556-6.4a4.128 4.128 0 0 0 -1.128-5.289 3.168 3.168 0 0 0 -4.53.768l-6.728 10.022a1 1 0 1 0 1.66 1.115l6.727-10.023a1.167 1.167 0 0 1 1.67-.283 2.122 2.122 0 0 1 .58 2.717l-3.681 6.626a1 1 0 0 0 -.126.486c0 12.333-5.977 13.964-6.222 14.025a.991.991 0 0 0 -.546.335l-5 6a1 1 0 0 0 1.536 1.28l4.81-5.771c1.531-.533 7.34-3.359 7.422-15.608z"/><path d="m55 32h-23a1 1 0 0 0 0 2h23a1 1 0 0 0 0-2z"/><path d="m55 38h-15a1 1 0 0 0 0 2h15a1 1 0 0 0 0-2z"/><path d="m35 40a1 1 0 0 0 0-2h-6a1 1 0 0 0 0 2z"/><path d="m56 45a1 1 0 0 0 -1-1h-8a1 1 0 0 0 0 2h8a1 1 0 0 0 1-1z"/><path d="m26 45a1 1 0 0 0 1 1h15a1 1 0 0 0 0-2h-15a1 1 0 0 0 -1 1z"/><path d="m32.065 56.6a1.26 1.26 0 0 0 .935.4c1.856 0 2.822-2.008 3.739-2.834.161 1.55.479 2.834 2.261 2.834 1.071 0 1.93-.951 2.712-1.667.605.924 1.888 1.667 5.288 1.667a1 1 0 0 0 0-2c-3.341 0-3.628-.735-3.737-1.012a1.349 1.349 0 0 0 -1.263-.988c-1.259 0-2.392 1.858-3 2-.065 0-.1-.007-.114 0-.263-.475.139-3-1.886-3-1.553 0-2.391 1.714-3.322 2.609.071-1.052.244-2.324-.474-3.1a1.594 1.594 0 0 0 -1.204-.509c-2.054 0-4.077 3.491-5.1 4a1 1 0 0 0 .1 2c1.61 0 3.312-3.041 4.743-3.9.062 1.143-.417 2.7.322 3.5z"/></svg>