<?xml version="1.0" encoding="UTF-8"?>
<svg xmlns="http://www.w3.org/2000/svg" id="Icons" viewBox="0 0 60 60" width="512" height="512"><path d="M55,4H53V3a3,3,0,0,0-6,0V4H43V3a3,3,0,0,0-6,0V4H33V3a3,3,0,0,0-6,0V4H23V3a3,3,0,0,0-6,0V4H13V3A3,3,0,0,0,7,3V4H5A5.006,5.006,0,0,0,0,9V47a5.006,5.006,0,0,0,5,5H7.01A13.871,13.871,0,0,0,5.1,57.8a2.029,2.029,0,0,0,.52,1.547A2,2,0,0,0,7.1,60H53a2,2,0,0,0,1.477-.651,2.03,2.03,0,0,0,.52-1.548,13.881,13.881,0,0,0-1.91-5.8H55a5.006,5.006,0,0,0,5-5V9A5.006,5.006,0,0,0,55,4ZM49,3a1,1,0,0,1,2,0V7a1,1,0,0,1-2,0ZM39,3a1,1,0,0,1,2,0V7a1,1,0,0,1-2,0ZM29,3a1,1,0,0,1,2,0V7a1,1,0,0,1-2,0ZM19,3a1,1,0,0,1,2,0V7a1,1,0,0,1-2,0ZM9,3a1,1,0,0,1,2,0V7A1,1,0,0,1,9,7ZM5,6H7V7a3,3,0,0,0,6,0V6h4V7a3,3,0,0,0,6,0V6h4V7a3,3,0,0,0,6,0V6h4V7a3,3,0,0,0,6,0V6h4V7a3,3,0,0,0,6,0V6h2a3,3,0,0,1,3,3v3H2V9A3,3,0,0,1,5,6ZM7.1,58l-.005-.018c.68-7.493,8.781-13.524,19.115-14.743l1.117,2.573a1,1,0,0,0,.918.6.987.987,0,0,0,.4-.083,1,1,0,0,0,.518-1.315l-.849-1.956c.575-.03,1.151-.059,1.737-.059a30.559,30.559,0,0,1,12.33,2.505L41.48,47h-8.9a2,2,0,0,0-1.664.891l-1.7,2.554a1,1,0,1,0,1.664,1.11L32.581,49h8.93l1.7,2.555a1,1,0,1,0,1.664-1.11l-1.649-2.473.949-1.582C49.2,49.119,52.569,53.269,53,58ZM55,50H51.688a21.742,21.742,0,0,0-6.494-5.3l.709-1.182a1,1,0,0,0-1.715-1.03L43.4,43.8A32.307,32.307,0,0,0,30.046,41c-.874,0-1.737.035-2.589.1L24,33.129a10.824,10.824,0,0,1,3.6-.633.962.962,0,0,0,.878-.432A7.518,7.518,0,0,1,34.838,29.3a1.008,1.008,0,0,0,1.018-.5,1,1,0,0,0-.1-1.128c-3.787-4.6-10.645-5.979-16.679-3.358s-9.7,8.576-8.932,14.482a1,1,0,0,0,.757.843,1.046,1.046,0,0,0,.235.027,1,1,0,0,0,.824-.434,7.522,7.522,0,0,1,6.365-2.764,1.01,1.01,0,0,0,.913-.345,10.927,10.927,0,0,1,2.921-2.2l3.211,7.393C18.159,42.309,12,45.546,8.4,50H5a3,3,0,0,1-3-3V14H58V47A3,3,0,0,1,55,50ZM18.878,33.727c-1.039-3.15-.675-5.758,1.033-7.493,2.414-.061,4.584,1.451,6.18,4.36a14.313,14.313,0,0,0-7.213,3.133Zm9.029-3.972a11.084,11.084,0,0,0-4.32-4.633,12.065,12.065,0,0,1,9.071,2.3,9.608,9.608,0,0,0-4.751,2.331ZM17.026,34.48a9.62,9.62,0,0,0-4.945,1.881,12.059,12.059,0,0,1,4.5-8.194A11.081,11.081,0,0,0,17.026,34.48Z"/><path d="M50.046,24H48.9a3.915,3.915,0,0,0-.425-1.019l.809-.809a1,1,0,1,0-1.414-1.414l-.809.809a3.915,3.915,0,0,0-1.019-.425V20a1,1,0,1,0-2,0v1.142a3.915,3.915,0,0,0-1.019.425l-.809-.809A1,1,0,0,0,40.8,22.172l.809.809A3.915,3.915,0,0,0,41.188,24H40.046a1,1,0,1,0,0,2h1.142a3.915,3.915,0,0,0,.425,1.019l-.809.809a1,1,0,1,0,1.414,1.414l.809-.809a3.915,3.915,0,0,0,1.019.425V30a1,1,0,0,0,2,0V28.858a3.915,3.915,0,0,0,1.019-.425l.809.809a1,1,0,1,0,1.414-1.414l-.809-.809A3.915,3.915,0,0,0,48.9,26h1.142a1,1,0,0,0,0-2Zm-5,3a2,2,0,1,1,2-2A2,2,0,0,1,45.046,27Z"/></svg>
