<svg id="Layer_1" height="512" viewBox="0 0 50 50" width="512" xmlns="http://www.w3.org/2000/svg"><g><path d="m27.1 34.1c-.7 1-1.4 1.9-2.1 2.9-.8-1-1.5-1.9-2.1-2.9l1-4-.9-2.2h4.2l-.9 2.2z"/><path d="m36.1 14.1v-4l-2.5-.2c-.2-.8-.5-1.6-.9-2.3l1.6-1.9-2.8-2.8-1.9 1.6c-.7-.4-1.5-.8-2.3-1l-.3-2.5h-4l-.2 2.5c-.8.2-1.6.6-2.3 1l-1.9-1.6-2.8 2.8 1.6 1.9c-.4.7-.7 1.5-.9 2.3l-2.5.2v4l2.5.2c.2.8.5 1.6 1 2.3l-1.6 2 2.8 2.8 2-1.6c.7.4 1.5.7 2.3.9l.3 2.6h4l.3-2.6c.8-.2 1.6-.5 2.3-.9l2 1.6 2.8-2.8-1.6-2c.4-.7.7-1.5 1-2.3zm-11.1 3.7c-3.1 0-5.7-2.5-5.7-5.7s2.5-5.7 5.7-5.7c3.1 0 5.7 2.5 5.7 5.7s-2.6 5.7-5.7 5.7z"/><circle cx="25" cy="12.1" r="2.5"/><path d="m41.4 49h-32.8c-2.4 0-4.2-2.1-3.9-4.5.8-5.4 2.5-14 5.3-16.2 1.6-1.2 4-2 6.7-2.6 1.3 5.1 4.2 9.8 8.2 14.4 4-4.5 6.9-9.3 8.2-14.4 2.8.6 5.2 1.4 6.7 2.6 2.9 2.2 4.6 10.8 5.3 16.2.5 2.4-1.3 4.5-3.7 4.5z"/></g></svg>