<svg id="Capa_1" enable-background="new 0 0 512 512" height="512" viewBox="0 0 512 512" width="512" xmlns="http://www.w3.org/2000/svg"><g><path d="m497 181h-28.91c-2.653-7.554-5.674-14.9-9.04-21.983l20.396-20.396c2.813-2.813 4.394-6.628 4.394-10.607s-1.58-7.793-4.394-10.606l-84.854-84.853c-5.857-5.858-15.355-5.858-21.213 0l-20.397 20.397c-7.085-3.367-14.43-6.388-21.982-9.041v-28.911c0-8.284-6.716-15-15-15h-120c-8.284 0-15 6.716-15 15v28.911c-7.553 2.653-14.898 5.674-21.982 9.041l-20.398-20.397c-5.857-5.858-15.355-5.858-21.213 0l-84.854 84.853c-2.813 2.813-4.394 6.628-4.394 10.606s1.581 7.793 4.394 10.607l20.397 20.396c-3.366 7.083-6.387 14.429-9.04 21.983h-28.91c-8.284 0-15 6.716-15 15v120c0 8.284 6.716 15 15 15h28.911c2.653 7.553 5.674 14.898 9.041 21.982l-20.398 20.398c-2.813 2.813-4.394 6.628-4.394 10.607s1.581 7.793 4.394 10.606l84.854 84.853c2.813 2.813 6.628 4.393 10.606 4.393 3.979 0 7.793-1.581 10.607-4.394l20.396-20.396c7.084 3.367 14.431 6.388 21.983 9.041v28.91c0 8.284 6.716 15 15 15h120c8.284 0 15-6.716 15-15v-28.911c7.553-2.652 14.898-5.673 21.983-9.041l20.396 20.396c2.812 2.813 6.628 4.394 10.606 4.394s7.794-1.58 10.606-4.393l84.854-84.853c2.813-2.813 4.394-6.628 4.394-10.606s-1.58-7.794-4.394-10.607l-20.397-20.396c3.367-7.085 6.388-14.43 9.041-21.983h28.911c8.284 0 15-6.716 15-15v-120c0-8.284-6.716-15-15-15zm-241 210c-74.439 0-135-60.561-135-135s60.561-135 135-135 135 60.561 135 135-60.561 135-135 135z"/><path d="m315.489 254.421c-14.656 16.304-35.892 26.579-59.489 26.579s-44.834-10.276-59.489-26.58c-15.495 11.892-25.511 30.584-25.511 51.58v20c0 8.284 6.716 15 15 15h140c8.284 0 15-6.716 15-15v-20c0-20.996-10.016-39.688-25.511-51.579z"/><circle cx="256" cy="201" r="50"/></g></svg>