<svg id="Layer_1" height="512" viewBox="0 0 512 512" width="512" xmlns="http://www.w3.org/2000/svg" data-name="Layer 1"><path d="m192.39 414.094c-106.084 0-192.39-86.306-192.39-192.44 0-106.084 86.306-192.39 192.39-192.39a192.219 192.219 0 0 1 172.61 107.191c-1.056 0-2.163-.051-3.271-.051a80.828 80.828 0 0 0 -13.99 1.258 176.461 176.461 0 0 0 -155.351-92.6c-97.325.003-176.588 79.265-176.588 176.592 0 97.377 79.261 176.588 176.588 176.588h3.02c-.252 1.006-.453 2.013-.655 3.019a7.871 7.871 0 0 0 -.151 1.56c0 1.812-.05 5.788-.05 11.273zm19.123 68.642h300.487c-.051-35.478-.1-70.4-.151-79.009a35.249 35.249 0 0 0 -18.419-24.206 2.764 2.764 0 0 0 -.4-.251c-10.568-6.291-23.753-11.726-36.536-17.01-18.418-7.6-37.491-15.449-51.029-26.622-16.607-13.587-22.746-30.7-18.267-50.726a8.484 8.484 0 0 1 2.868-4.681c19.677-16.406 27.628-48.412 21.791-87.816-3.976-26.873-28.031-38.951-50.124-38.951s-46.147 12.078-50.123 38.951c-5.736 38.7 2.215 70.454 21.791 87.112a9.054 9.054 0 0 1 2.768 4.529c4.831 20.331-1.158 37.592-17.765 51.381-13.587 11.273-32.761 19.174-51.33 26.823-12.783 5.284-26.018 10.719-36.586 17.01-.151.1-.252.151-.4.251a35.392 35.392 0 0 0 -18.419 24.206c-.05 8.606-.1 43.531-.151 79.009zm108.55-192.188c-22.5-20.935-31.755-57.37-25.313-100.6 2.466-16.758 10.87-30.7 24.306-40.36a63.711 63.711 0 0 1 11.978-6.844 159.389 159.389 0 0 0 -138.644-80.568c-87.917 0-159.478 71.561-159.478 159.478 0 87.967 71.561 159.528 159.478 159.528 3.674 0 7.347-.1 11.021-.352a52.546 52.546 0 0 1 18.57-16.356c11.574-6.844 25.313-12.48 38.548-17.966 12.128-5.032 22.8-9.612 31.7-14.392a8.987 8.987 0 0 1 -3.569-2.116l-8.706-8.756a8.417 8.417 0 0 1 0-12.028 8.566 8.566 0 0 1 12.078 0l8.706 8.706a8.616 8.616 0 0 1 2.366 7.65c13.235-9.21 19.727-19.778 16.959-35.026zm-136.178-201.197a8.53 8.53 0 1 0 17.06 0v-12.33a8.53 8.53 0 1 0 -17.06 0zm116.853 36.083a8.54 8.54 0 0 0 -12.078-12.078l-8.706 8.706a8.555 8.555 0 0 0 6.039 14.594 8.675 8.675 0 0 0 6.039-2.516zm-99.793 228.573a8.53 8.53 0 1 0 -17.06 0v12.329a8.53 8.53 0 1 0 17.06 0zm-96.069-44.789a8.566 8.566 0 0 0 -12.078 0l-8.706 8.706a8.54 8.54 0 1 0 12.078 12.076l8.706-8.756a8.506 8.506 0 0 0 0-12.028zm-36.233-87.564a8.538 8.538 0 0 0 -8.556-8.5h-12.329a8.53 8.53 0 1 0 0 17.06h12.329a8.549 8.549 0 0 0 8.556-8.555zm36.233-99.592-8.706-8.706a8.54 8.54 0 0 0 -12.078 12.078l8.708 8.706a8.587 8.587 0 0 0 6.039 2.516 8.555 8.555 0 0 0 6.039-14.594zm159.931 26.118-62.5 53.747a21.847 21.847 0 0 0 -19.777 0l-40.008-34.422a8.548 8.548 0 0 0 -11.122 12.984l40.008 34.371a21.826 21.826 0 0 0 -1.107 6.794 22.118 22.118 0 1 0 44.235 0 21.855 21.855 0 0 0 -1.107-6.794l62.5-53.7a8.548 8.548 0 0 0 -11.122-12.984zm-72.417 78.556a5.058 5.058 0 1 0 -5.032-5.082 5.068 5.068 0 0 0 5.032 5.082z" fill-rule="evenodd"/></svg>